# xmcd
#
# Track frame offsets: 
#        150
#        18236
#        35765
#        50695
#        71654
#        92932
#        111269
#        124349
#        137429
#        152400
#        166224
#        180788
#
# Disc length: 2629 seconds
#
# Revision: 0
# Processed by: cddbd v1.5.2PL0 Copyright (c) Steve Scherf et al.
# Submitted via: ExactAudioCopy v1.0b3
#
DISCID=9a0a430c
DTITLE=Агрессор - Рожденный Ненавидеть
DYEAR=2014
DGENRE=RAC
TTITLE0=Боги Леса
TTITLE1=Заключенный
TTITLE2=Сделано в России
TTITLE3=Солдаты Холодной Войны
TTITLE4=Уличный Бой
TTITLE5=Рабочий Скот
TTITLE6=Провокатор
TTITLE7=Смерти Нет
TTITLE8=Дорога К Миру
TTITLE9=Новое Время
TTITLE10=Видимость Выбора
TTITLE11=Паразит
EXTD=
EXTT0=
EXTT1=
EXTT2=
EXTT3=
EXTT4=
EXTT5=
EXTT6=
EXTT7=
EXTT8=
EXTT9=
EXTT10=
EXTT11=
PLAYORDER=
